<?xml version="1.0" standalone="no"?>
<!DOCTYPE svg PUBLIC "-//W3C//DTD SVG 20010904//EN"
 "http://www.w3.org/TR/2001/REC-SVG-20010904/DTD/svg10.dtd">
<svg version="1.0" xmlns="http://www.w3.org/2000/svg"
 width="260.000000pt" height="260.000000pt" viewBox="0 0 260.000000 260.000000"
 preserveAspectRatio="xMidYMid meet">
<metadata>
Created by potrace 1.11, written by Peter Selinger 2001-2013
</metadata>
<g transform="translate(0.000000,260.000000) scale(0.100000,-0.100000)"
fill="#000000" stroke="none">
<path d="M1288 2595 c-2 -2 -30 -4 -63 -5 -545 -14 -1054 -436 -1181 -979 -28
-116 -35 -184 -35 -321 0 -352 125 -656 371 -900 98 -97 113 -110 201 -171
246 -169 543 -239 874 -206 424 44 824 332 1015 732 84 178 118 333 118 550 1
301 -77 542 -250 772 -150 199 -355 356 -573 440 -125 48 -223 70 -360 79 -44
3 -88 7 -97 8 -9 2 -18 2 -20 1z m-238 -696 c67 -34 104 -98 104 -184 0 -129
-82 -209 -210 -208 -67 1 -105 16 -146 60 -61 63 -75 165 -35 243 54 106 179
145 287 89z m696 5 c122 -58 151 -230 58 -334 -50 -55 -125 -76 -209 -58 -58
12 -124 74 -142 130 -25 85 10 203 73 244 64 43 153 50 220 18z m214 -568 c36
-3 71 -5 78 -5 18 -1 7 -114 -20 -199 -41 -135 -117 -248 -225 -335 -89 -72
-171 -113 -285 -142 -81 -20 -112 -23 -238 -21 -80 2 -158 6 -175 10 -65 16
-182 59 -225 83 -203 117 -314 283 -336 502 -6 65 -5 71 12 72 11 0 26 2 34 4
8 1 45 6 83 9 52 6 67 4 68 -6 17 -199 104 -308 306 -384 88 -33 128 -39 258
-38 119 1 202 17 294 60 64 29 148 95 183 144 34 47 67 138 69 192 3 50 13 67
37 62 9 -2 46 -6 82 -8z"/>
</g>
</svg>
